HIERARCHY
ROOT root
{
	OFFSET 0.000000 0.000000 0.000000
	CHANNELS 6 Xposition Yposition Zposition Zrotation Yrotation Xrotation
	JOINT lhip
	{
		OFFSET 0.058581 -0.082280 -0.017664
		CHANNELS 3 Zrotation Yrotation Xrotation
		JOINT lknee
		{
			OFFSET 0.043451 -0.386469 0.008037
			CHANNELS 3 Zrotation Yrotation Xrotation
			JOINT lankle
			{
				OFFSET -0.014790 -0.426874 -0.037428
				CHANNELS 3 Zrotation Yrotation Xrotation
				JOINT ltoe
				{
					OFFSET 0.041054 -0.060286 0.122042
					CHANNELS 3 Zrotation Yrotation Xrotation
					End Site
					{
						OFFSET 0.000000 0.000000 0.000000
					}
				}
			}
		}
	}
	JOINT rhip
	{
		OFFSET -0.060310 -0.090513 -0.013543
		CHANNELS 3 Zrotation Yrotation Xrotation
		JOINT rknee
		{
			OFFSET -0.043257 -0.383688 -0.004843
			CHANNELS 3 Zrotation Yrotation Xrotation
			JOINT rankle
			{
				OFFSET 0.019056 -0.420046 -0.034562
				CHANNELS 3 Zrotation Yrotation Xrotation
				JOINT rtoe
				{
					OFFSET -0.034840 -0.062106 0.130323
					CHANNELS 3 Zrotation Yrotation Xrotation
					End Site
					{
						OFFSET 0.000000 0.000000 0.000000
					}
				}
			}
		}
	}
	JOINT lowerback
	{
		OFFSET 0.004439 0.124404 -0.038385
		CHANNELS 3 Zrotation Yrotation Xrotation
		JOINT upperback
		{
			OFFSET 0.004488 0.137956 0.026820
			CHANNELS 3 Zrotation Yrotation Xrotation
			JOINT chest
			{
				OFFSET -0.002265 0.056032 0.002855
				CHANNELS 3 Zrotation Yrotation Xrotation
				JOINT lowerneck
				{
					OFFSET -0.013390 0.211636 -0.033468
					CHANNELS 3 Zrotation Yrotation Xrotation
					JOINT upperneck
					{
						OFFSET 0.010113 0.088937 0.050410
						CHANNELS 3 Zrotation Yrotation Xrotation
						End Site
						{
							OFFSET 0.000000 0.000000 0.000000
						}
					}
				}
				JOINT lclavicle
				{
					OFFSET 0.071702 0.114000 -0.018898
					CHANNELS 3 Zrotation Yrotation Xrotation
					JOINT lshoulder
					{
						OFFSET 0.122921 0.045205 -0.019046
						CHANNELS 3 Zrotation Yrotation Xrotation
						JOINT lelbow
						{
							OFFSET 0.255332 -0.015649 -0.022946
							CHANNELS 3 Zrotation Yrotation Xrotation
							JOINT lwrist
							{
								OFFSET 0.265709 0.012698 -0.007375
								CHANNELS 3 Zrotation Yrotation Xrotation
								End Site
								{
									OFFSET 0.000000 0.000000 0.000000
								}
							}
						}
					}
				}
				JOINT rclavicle
				{
					OFFSET -0.082954 0.112472 -0.023707
					CHANNELS 3 Zrotation Yrotation Xrotation
					JOINT rshoulder
					{
						OFFSET -0.113228 0.046853 -0.008472
						CHANNELS 3 Zrotation Yrotation Xrotation
						JOINT relbow
						{
							OFFSET -0.260127 -0.014369 -0.031269
							CHANNELS 3 Zrotation Yrotation Xrotation
							JOINT rwrist
							{
								OFFSET -0.269108 0.006794 -0.006027
								CHANNELS 3 Zrotation Yrotation Xrotation
								End Site
								{
									OFFSET 0.000000 0.000000 0.000000
								}
							}
						}
					}
				}
			}
		}
	}
}
MOTION
Frames: 8
Frame Time: 0.033333
-0.897939 0.727051 1.020348 67.054599 -2.387339 87.900334 7.445025 5.706960 2.207413 -1.613821 -1.572769 5.677899 -2.028066 10.803977 -11.118363 0.000000 -0.000000 0.000000 -4.683299 -5.139840 -1.803480 0.467457 -4.403564 10.308998 3.494571 -8.592516 -11.072559 0.000000 -0.000000 0.000000 1.268382 -2.096821 10.111180 0.890982 -2.222175 -3.316067 0.325605 -2.467192 0.223305 0.404183 -4.421759 -8.924081 -1.081028 -8.619411 7.584944 -25.745337 7.677126 1.087982 -55.198171 -5.503115 7.647959 6.498082 -35.692863 11.736709 -1.592342 -8.688759 -5.561964 24.831190 -4.182393 -1.225014 52.124748 -2.330243 13.255277 -10.340939 28.881280 0.328343 0.984315 3.547026 -0.983249 
-0.895940 0.730614 1.020602 67.063360 -2.258240 87.917978 7.284263 5.672844 2.223119 -1.639708 -1.844030 5.723038 -1.653212 10.737450 -11.354849 0.000000 -0.000000 0.000000 -4.685159 -4.653215 -1.478271 0.339301 -4.420788 9.706752 4.071023 -9.238179 -10.781538 0.000000 -0.000000 0.000000 1.118837 -1.848744 10.034505 0.899364 -2.319670 -3.345819 0.239469 -2.209042 0.134573 0.252536 -4.702719 -9.001454 -1.242564 -8.651373 7.775266 -25.441930 7.696906 0.985668 -55.466625 -5.835232 7.986145 6.698379 -36.496298 12.111196 -1.440155 -8.854350 -5.655272 24.788554 -4.214588 -1.043066 52.455948 -2.631950 13.509640 -9.884460 29.588411 0.936620 1.415733 3.526240 -1.292803 
-0.894306 0.734391 1.020424 67.019859 -2.279066 87.845607 7.186224 5.775906 2.105466 -1.822573 -1.865047 6.080328 -1.090601 10.688596 -11.758241 0.000000 -0.000000 0.000000 -4.916897 -4.509231 -1.429937 0.293085 -4.353872 9.694028 4.025879 -9.437990 -10.586073 0.000000 -0.000000 0.000000 0.835292 -1.672337 9.905856 0.727375 -2.131523 -3.462645 0.172023 -2.252454 0.332587 0.168305 -4.527510 -8.776119 -1.248307 -8.616305 8.007401 -25.211244 7.538269 1.043505 -55.228909 -6.257576 7.861883 6.422123 -37.051324 12.181316 -1.431293 -8.557047 -5.716798 24.854713 -4.146592 -0.883849 52.959948 -2.708735 13.832504 -10.182506 30.367549 1.421390 1.225629 3.310133 -0.809776 
-0.892789 0.738708 1.020375 67.039503 -2.150350 87.834046 7.065978 5.720255 2.026025 -1.885987 -1.562922 6.162726 -0.793275 10.615608 -12.053583 0.000000 -0.000000 0.000000 -4.977157 -5.142960 -1.756793 0.033483 -3.934531 10.216061 4.424631 -9.262617 -10.830369 0.000000 -0.000000 0.000000 0.697674 -1.309965 9.919150 0.605976 -2.226321 -3.650257 0.112154 -2.368215 0.346859 0.073018 -4.438905 -8.781401 -1.412722 -8.443064 8.391801 -25.110443 7.636496 0.987901 -54.969508 -6.331875 7.874248 6.530528 -37.992042 12.092847 -0.880774 -9.010267 -6.309041 24.741617 -4.147813 -0.761532 53.316555 -2.730565 14.356288 -9.513148 31.968985 2.228877 1.220763 3.660799 -0.998756 
-0.892582 0.741405 1.020589 67.177240 -1.993548 87.844705 7.069593 5.528271 1.783321 -2.035837 -1.919614 6.615370 -1.313479 10.750113 -12.536552 0.000000 -0.000000 0.000000 -4.891597 -4.998443 -1.932524 -0.086494 -4.239191 10.394898 4.536246 -9.393480 -10.954982 0.000000 -0.000000 0.000000 0.636487 -1.293309 10.170214 0.527048 -2.155672 -3.967299 0.091264 -2.348648 0.170936 0.043741 -4.439269 -8.586881 -1.405300 -8.434205 8.503555 -24.993744 7.514495 1.081541 -54.772589 -6.238974 7.890169 6.494479 -38.361570 11.860453 -0.621391 -8.881346 -6.345787 24.749137 -4.081997 -0.949688 53.464683 -2.948705 14.563970 -9.249916 32.556798 2.703374 1.229616 3.836694 -1.034392 
-0.890830 0.743762 1.020950 67.117432 -1.812742 87.499815 7.157097 5.821311 2.196510 -2.036831 -2.115428 6.658612 -1.181857 10.488029 -12.855951 0.000000 -0.000000 0.000000 -4.791609 -5.267451 -1.529456 -0.350023 -4.002830 10.413921 4.683736 -9.152857 -10.765245 0.000000 -0.000000 0.000000 0.507257 -1.252404 10.343689 0.458905 -2.197341 -3.855576 0.090858 -2.107642 0.425405 -0.096345 -4.487675 -8.853970 -1.150793 -8.531465 8.280839 -25.033730 7.721560 0.811160 -54.677750 -6.322776 7.628205 6.777266 -38.731790 11.471606 -0.226677 -8.641480 -6.282948 24.777191 -3.963141 -1.216369 53.467817 -3.055464 14.764914 -8.716729 34.035848 3.049895 1.240602 3.968601 -1.201073 
-0.889933 0.746493 1.020427 66.995249 -1.708791 87.574845 7.081884 5.824794 2.241731 -1.928239 -2.101510 6.448824 -1.058884 10.542457 -13.051506 0.000000 -0.000000 0.000000 -4.776226 -5.353633 -1.842331 -0.466597 -3.648278 10.711945 4.821485 -9.361141 -10.745913 0.000000 -0.000000 0.000000 0.416957 -1.070171 9.935937 0.333556 -2.103186 -3.631485 0.009233 -2.271008 0.518407 0.150948 -4.234862 -8.949991 -1.369396 -8.263452 8.464913 -24.991528 7.590331 0.924839 -54.273060 -6.164620 7.580643 6.596581 -38.553191 11.202881 0.416370 -8.657259 -6.787778 24.712298 -3.835474 -0.957510 53.572104 -2.636228 15.336042 -8.130791 35.146987 3.964688 0.707433 3.863029 -1.042852 
-0.889302 0.748965 1.020522 67.090259 -1.654781 87.460053 6.920187 5.912587 2.273830 -1.909843 -2.130926 6.462988 -1.025085 10.575275 -12.820594 0.000000 -0.000000 0.000000 -4.881622 -5.621947 -1.807826 -0.561423 -3.871313 10.765695 4.804038 -9.312275 -10.875360 0.000000 -0.000000 0.000000 0.217377 -1.031073 10.060517 0.274691 -2.207504 -3.704976 0.039998 -2.228877 0.498901 -0.036479 -4.347156 -8.770649 -1.185380 -8.420399 8.318705 -24.886028 7.723394 0.836932 -54.300327 -5.935122 7.326949 6.854587 -38.035588 10.928310 0.390007 -8.550442 -6.764432 24.470347 -3.633042 -1.028541 53.620183 -2.585456 15.589112 -7.536044 36.213171 4.718255 0.724987 4.153261 -1.143115 
